<svg width="80" height="80" viewBox="0 0 80 80" fill="none" xmlns="http://www.w3.org/2000/svg">
<g clip-path="url(#clip0)">
<path fill-rule="evenodd" clip-rule="evenodd" d="M36.0492 22.6086C36.1833 21.9286 36.3174 21.5898 36.3833 21.5898C36.3833 21.5898 36.1833 21.9968 36.0492 22.6086ZM33.8468 32.3168L34.3809 29.8063C34.3809 29.8745 34.315 29.9404 34.315 30.011L33.9809 30.7568C33.7809 31.4345 33.8468 31.8415 33.8468 32.3168ZM60.9433 8.01095L59.4092 9.30037C58.8092 9.91213 59.075 9.91213 58.675 10.5921C57.7409 12.1545 56.3386 13.578 55.2045 15.0039C53.9362 16.6345 52.9362 18.2627 51.8021 19.8933C50.7998 21.3851 49.3998 22.811 48.6656 24.4415C48.1315 25.731 47.5315 27.0227 46.7292 28.3098L41.8562 36.731C40.6539 38.8368 39.988 41.0768 38.788 43.3168L33.5809 54.0439C33.115 55.0627 32.6468 56.011 32.4468 56.9639C32.1786 58.051 31.9127 58.5945 30.6445 58.7286C28.308 58.9333 26.1056 56.9639 25.8398 54.6533C25.4398 51.7333 25.7739 48.4768 25.8398 45.4863C25.9056 43.9263 26.0398 42.0933 26.5739 40.531C26.7739 39.8533 26.9739 39.5827 27.0421 38.8345C27.108 38.6298 27.108 37.7474 27.1762 37.8839C27.1762 37.2745 27.0421 36.5239 27.2421 35.6439L27.908 32.3851C27.908 31.978 28.4421 26.2745 29.3103 26.411C29.4445 26.411 29.2445 26.818 29.3762 26.818C29.4421 26.411 29.5103 25.9357 29.6445 25.5263C29.5786 25.5263 29.5786 25.5968 29.5103 25.5968C29.5762 25.5968 30.3786 21.8604 30.5127 21.5215L27.9762 24.8486C26.908 26.3451 25.508 27.7027 24.5739 29.2627L18.2327 39.1757L12.4939 48.6133C11.4939 50.378 10.1574 52.1451 9.5574 54.1145C9.49152 54.451 9.42329 54.7921 9.29152 55.131C8.42329 57.1686 5.28681 57.5757 3.55034 56.5568C1.88211 55.5404 2.28211 53.8415 2.81623 52.2792L4.08446 47.9357C4.88446 44.5404 6.3527 41.3498 7.22093 38.0227L9.7574 28.2463C11.0915 22.9498 12.1598 17.3145 12.4939 11.7474C12.1598 16.2957 10.9598 21.0486 10.0915 25.4604C8.9574 30.9592 7.35505 36.6627 5.61858 42.0274L7.42093 33.8133L8.55505 30.4862C8.62093 30.418 8.95505 28.2463 9.02328 28.178C9.02328 28.2463 9.02328 28.3121 9.08917 28.3827C9.08917 28.2486 9.15505 28.178 9.15505 28.0439C8.95505 28.4533 9.02093 26.891 9.08917 26.8227C9.15505 26.211 9.28917 25.6015 9.42328 24.9874C9.7574 23.6298 10.0256 22.4086 10.0915 21.051C10.0915 20.3027 10.6915 14.3992 11.2939 14.3992C11.428 14.3992 11.2939 14.8721 11.3598 14.9427C11.4939 14.331 11.5598 13.7192 11.6256 13.0415C11.5598 13.1757 11.5598 13.3121 11.4256 13.3804C11.4915 13.1757 11.6939 9.91684 11.6939 9.57566C8.62328 11.6815 9.49152 6.79213 10.2256 5.3686C10.7598 4.14742 11.8939 2.71919 13.3621 2.65095C13.6962 2.65095 13.7621 2.92154 14.0962 2.92154C14.4303 2.98978 14.4962 2.78742 14.7645 2.85331C15.8986 3.05801 16.5668 4.14507 17.0327 5.16154C17.6327 6.4486 17.8327 7.81095 17.9009 9.23448C17.9009 10.1168 17.5668 10.5945 17.5668 11.2039C17.5668 11.1357 17.6327 11.0698 17.7009 10.9992C17.9668 10.9333 17.835 13.7827 17.5009 13.7827C17.435 13.851 17.5009 12.5592 17.5009 12.6298C17.1009 16.6345 16.3009 20.7074 15.5668 24.6462C15.7668 23.9004 17.1009 16.7027 17.1692 16.7027L14.7668 30.2133L11.9645 43.7921L15.5009 38.6321C16.9033 36.6627 17.7692 34.6274 19.3056 32.658C20.8398 30.8251 22.1762 28.7898 23.6445 26.8886C24.4468 25.7333 24.8468 24.5804 25.6468 23.4933C28.115 19.8957 31.1856 16.3639 33.7221 13.1051C33.988 12.7662 33.9221 12.3568 34.6562 12.1545C35.4562 11.9498 36.4586 12.5592 36.9927 13.1051C37.7268 13.7168 38.195 14.5992 38.2609 15.5498C38.3268 16.5686 37.7927 16.6368 37.5268 17.2462L37.7927 17.0415C37.9927 17.1098 37.2586 19.2815 37.0586 19.2815C36.9245 19.2815 36.9245 19.011 36.9927 18.738C35.9245 21.8604 35.2562 25.051 34.6562 28.2439C34.7903 27.971 35.3221 25.3921 35.7903 23.5592L33.7221 35.3733L32.9198 42.5004L31.9856 47.4557C31.9856 47.3874 32.0515 47.3215 32.1856 47.1851C32.3856 47.051 32.2515 50.1733 32.2515 50.3074L36.0562 41.7545L39.2609 35.7121C41.4633 30.7545 44.1339 26.138 47.0021 21.5192L56.0798 7.94272C57.348 6.31213 58.8845 4.88625 60.2186 3.25801C60.5527 2.8486 60.2868 2.50978 61.0868 2.37331C62.155 2.17095 63.2892 3.5286 63.6233 4.41095C63.6233 4.41095 63.5574 4.34272 63.6233 4.47919C64.1574 6.2439 62.0209 7.12625 60.9527 8.0086L60.9433 8.01095Z" fill="#E58A2E"/>
<path fill-rule="evenodd" clip-rule="evenodd" d="M54.8242 34.7145L53.0312 40.3427L54.8242 34.8721V34.7145V34.7921V34.7145ZM48.2783 36.8533C48.9018 34.7898 49.603 32.8909 50.3818 30.9874C52.7983 25.5968 54.9795 16.8768 61.2124 15.2909C58.7183 15.8462 56.8477 17.2745 55.2124 19.5709C53.1865 22.345 51.7842 25.3568 50.6924 28.6086L48.2759 36.8509L48.2783 36.8533ZM37.9136 79.025C37.8359 79.025 37.8359 79.1027 37.8359 79.1027L37.9136 79.025ZM42.1677 67.9733C42.7418 67.745 40.6406 67.8462 40.8759 67.2133C40.8759 67.2909 40.9536 65.3874 41.3442 65.1521C41.4218 65.1521 41.0312 66.8156 41.0312 66.8156C41.2665 66.1827 41.3442 65.5474 41.5771 64.8321C41.4995 64.9121 41.4218 64.9121 41.3442 64.8321C40.9536 63.8015 42.2006 60.9474 42.4336 59.9168L43.603 55.4768C44.3042 52.7827 44.6948 50.2462 45.0054 47.4721C45.3159 44.458 46.1724 41.5262 46.9536 38.6721C47.1089 38.2768 48.4336 33.2039 48.8242 33.2039C48.9018 33.2039 48.5912 34.3121 48.6689 34.3921L49.9936 29.7168C49.9159 29.7968 49.3701 30.985 49.3701 30.8274C49.2148 29.9521 50.0712 28.5286 50.3842 27.6533L51.4759 24.3239C52.2548 22.105 53.1112 19.8862 54.4359 17.825C56.1512 15.2886 58.5654 13.2274 61.683 13.0674C63.8642 12.9098 66.123 13.7027 67.9159 14.7333C71.1889 16.5545 72.4359 19.0133 72.6689 22.4227C72.9042 26.625 70.0971 32.5709 66.8265 35.105C65.5795 36.0603 63.8642 36.8509 62.3065 36.6933C61.2924 36.6133 60.0477 36.0603 60.6712 34.8698C60.6712 34.8698 60.8265 34.7898 60.9042 34.6321H60.8265C60.8265 34.5545 63.5536 28.7662 63.8665 28.8462C63.9442 28.8462 62.9324 31.3827 62.9324 31.5403C64.1018 29.0839 65.1136 26.4674 65.8924 23.8509C66.283 22.5027 67.4501 19.2509 66.5159 17.825C65.5042 16.3192 63.243 18.065 62.3089 18.9356C60.1277 21.1545 58.803 24.3262 57.6336 27.1803C58.9583 24.0886 60.9842 19.0156 64.4148 17.7474C67.6101 16.5568 66.2854 21.0768 65.9724 22.1874C66.2054 21.3145 66.8289 18.0674 65.5818 17.6674C64.1018 17.2721 62.3889 19.4109 61.6877 20.3639C58.4924 24.5639 56.6995 30.1145 55.0642 35.105C51.7136 45.4109 53.4783 41.2815 49.5818 51.3474C50.0171 51.2133 44.1089 67.545 44.5489 67.4133L42.1748 67.9733H42.1677Z" fill="#E58A2E"/>
<path fill-rule="evenodd" clip-rule="evenodd" d="M35.4102 89.5307C35.3467 89.5307 35.3467 89.5966 35.3467 89.5966L35.4102 89.5307ZM50.8361 49.3801C48.9137 56.2154 44.4526 72.446 41.8949 79.0531C42.2526 78.9425 40.4596 80.1637 40.8173 80.0578L38.8784 80.5142C39.3467 80.326 37.6337 80.4107 37.8243 79.8931C37.8243 79.9566 37.8879 78.406 38.2055 78.2107C38.269 78.2107 37.9514 79.5707 37.9514 79.5707C38.142 79.0531 38.2055 78.5354 38.3961 77.9519C38.3326 78.0178 38.269 78.0178 38.2055 77.9519C37.8879 77.1142 38.9043 74.7825 39.0949 73.9448C39.4149 72.7142 39.7961 71.5519 40.0502 70.3237C40.622 68.1237 41.0737 64.4342 41.7608 61.7778C42.3796 59.3895 43.8737 52.7801 44.509 50.4531L50.8337 49.3825L50.8361 49.3801Z" fill="#E58A2E"/>
<path fill-rule="evenodd" clip-rule="evenodd" d="M63.8061 43.8108C59.8155 45.2014 56.5166 44.3872 52.5496 45.9237C54.2978 45.3849 54.8908 45.7849 56.6766 45.4672C58.8296 45.159 61.6508 44.6461 63.8061 43.8108ZM66.4202 45.8202C65.1072 46.2037 64.6343 46.6649 63.3331 47.1237L54.6766 49.7237C52.4178 50.5025 49.7566 50.5284 47.5002 51.3072C45.6625 51.8625 43.6743 52.592 41.6343 52.5049C39.2131 52.3378 37.5355 50.0814 37.6555 48.1072C37.7849 46.7308 38.9331 46.9755 40.2578 46.6649L55.4649 43.6437C58.2414 43.2823 61.0391 43.1085 63.839 43.1237C64.6672 43.1261 69.4578 43.1708 69.6484 43.7378C70.0155 44.799 67.3002 45.5849 66.4202 45.8178V45.8202Z" fill="#E58A2E"/>
</g>
<defs>
<clipPath id="clip0">
<rect width="80" height="80" fill="white"/>
</clipPath>
</defs>
</svg>
