<svg xmlns="http://www.w3.org/2000/svg" xmlns:xlink="http://www.w3.org/1999/xlink" width="119" height="31" xmlns:v="https://vecta.io/nano"><defs><path d="M32.233 16.606C32.233 25.659 25.017 33 16.116 33S0 25.659 0 16.606 7.215.21 16.116.21s16.117 7.34 16.117 16.395h0z" id="A"/></defs><g transform="translate(-1 -2)" fill-rule="evenodd"><mask id="B" fill="#fff"><use xlink:href="#A"/></mask><g fill="#e58a2e"><path d="M15.436 10.008c.057-.289.114-.433.142-.433 0 0-.085.173-.142.433zm-.936 4.126l.227-1.067c0 .029-.028.057-.028.087l-.142.317c-.085.288-.057.461-.057.663zm11.516-10.33l-.652.548c-.255.26-.142.26-.312.549-.397.664-.993 1.269-1.475 1.875-.539.693-.964 1.385-1.446 2.078-.426.634-1.021 1.24-1.333 1.933-.227.548-.482 1.097-.823 1.644l-2.071 3.579c-.511.895-.794 1.847-1.304 2.799l-2.213 4.559c-.198.433-.397.836-.482 1.241-.114.462-.227.693-.766.75-.993.087-1.929-.75-2.042-1.732-.17-1.241-.028-2.625 0-3.896.028-.663.085-1.442.312-2.106.085-.288.17-.403.199-.721.028-.087.028-.462.057-.404 0-.259-.057-.578.028-.952l.283-1.385c0-.173.227-2.597.596-2.539.057 0-.028.173.028.173.028-.173.057-.375.114-.549-.028 0-.028.03-.057.03.028 0 .369-1.588.426-1.732l-1.078 1.414c-.454.636-1.049 1.213-1.446 1.876l-2.695 4.213-2.439 4.011c-.425.75-.993 1.501-1.248 2.338-.028.143-.057.288-.113.432-.369.866-1.702 1.039-2.44.606-.709-.432-.539-1.154-.312-1.818l.539-1.846c.34-1.443.964-2.799 1.333-4.213l1.078-4.155c.567-2.251 1.021-4.646 1.163-7.012-.142 1.933-.652 3.953-1.021 5.828-.482 2.337-1.163 4.761-1.901 7.041l.766-3.491.482-1.414c.028-.029.17-.952.199-.981 0 .029 0 .057.028.087 0-.057.028-.087.028-.144-.085.174-.057-.49-.028-.519.028-.26.085-.519.142-.78.142-.577.256-1.096.284-1.673 0-.318.255-2.827.511-2.827.057 0 0 .201.028.231.057-.26.085-.52.113-.808-.028.057-.028.115-.085.144.028-.087.114-1.472.114-1.617-1.305.895-.936-1.183-.624-1.788.227-.519.709-1.126 1.333-1.155.142 0 .17.115.312.115.142.029.17-.057.284-.029.482.087.766.549.964.981.255.547.34 1.126.369 1.731 0 .375-.142.578-.142.837 0-.029.028-.057.057-.087.113-.028.057 1.183-.085 1.183-.028.029 0-.52 0-.49-.17 1.702-.51 3.433-.822 5.107.085-.317.652-3.376.681-3.376l-1.021 5.742-1.191 5.771 1.503-2.193c.596-.837.964-1.702 1.617-2.539.652-.779 1.22-1.644 1.844-2.452.341-.491.511-.981.851-1.443 1.049-1.529 2.354-3.03 3.432-4.415.113-.144.085-.318.397-.404.34-.087.766.172.993.404.312.26.511.635.539 1.039.028.433-.199.462-.312.721l.113-.087c.085.029-.227.952-.312.952-.057 0-.057-.115-.028-.231-.454 1.327-.738 2.683-.993 4.04.057-.116.283-1.212.482-1.991l-.879 5.021-.341 3.029-.397 2.106c0-.029.028-.057.085-.115.085-.057.028 1.27.028 1.327l1.617-3.635 1.362-2.568c.936-2.107 2.071-4.069 3.29-6.032l3.858-5.77c.539-.693 1.192-1.299 1.759-1.991.142-.174.029-.318.369-.376.454-.086.936.491 1.078.866 0 0-.028-.029 0 .029.227.75-.681 1.125-1.135 1.5h0z" mask="url(#B)"/><path d="M23.415 15.153l-.762 2.392.762-2.325v-.067.033-.033zm-2.782.909c.265-.877.563-1.684.894-2.493 1.027-2.291 1.954-5.997 4.603-6.671-1.06.236-1.855.843-2.55 1.819-.861 1.179-1.457 2.459-1.921 3.841l-1.027 3.503zm-4.405 17.923c-.033 0-.033.033-.033.033l.033-.033zm1.808-4.697c.244-.097-.649-.054-.549-.323 0 .033.033-.776.199-.876.033 0-.133.707-.133.707.1-.269.133-.539.232-.843-.033.034-.066.034-.099 0-.166-.438.364-1.651.463-2.089l.497-1.887c.298-1.145.464-2.223.596-3.402.132-1.281.496-2.527.828-3.74.066-.168.629-2.324.795-2.324.033 0-.099.471-.066.505l.563-1.987c-.033.034-.265.539-.265.472-.066-.372.298-.977.431-1.349l.464-1.415c.331-.943.695-1.886 1.258-2.762.729-1.078 1.755-1.954 3.08-2.022.927-.067 1.887.27 2.649.708 1.391.774 1.921 1.819 2.02 3.268.1 1.786-1.093 4.313-2.483 5.39-.53.406-1.259.742-1.921.675-.431-.034-.96-.269-.695-.775 0 0 .066-.034.099-.101h-.033c0-.033 1.159-2.493 1.292-2.459.033 0-.397 1.078-.397 1.145.497-1.044.927-2.156 1.258-3.268.166-.573.662-1.955.265-2.561-.43-.64-1.391.102-1.788.472-.927.943-1.49 2.291-1.987 3.504.563-1.314 1.424-3.47 2.882-4.009 1.358-.506.795 1.415.662 1.887.099-.371.364-1.751-.166-1.921-.629-.168-1.357.741-1.655 1.146-1.358 1.785-2.12 4.144-2.815 6.265-1.424 4.38-.674 2.625-2.33 6.903.185-.057-2.326 6.884-2.139 6.828l-1.009.238h0z" mask="url(#B)"/><path d="M15.164 38.45c-.027 0-.027.028-.027.028l.027-.028zm6.556-17.064c-.817 2.905-2.713 9.803-3.8 12.611.152-.047-.61.472-.458.427l-.824.194c.199-.08-.529-.044-.448-.264 0 .027.027-.632.162-.715.027 0-.108.578-.108.578.081-.22.108-.44.189-.688-.027.028-.054.028-.081 0-.135-.356.297-1.347.378-1.703.136-.523.298-1.017.406-1.539.243-.935.435-2.503.727-3.632.263-1.015.898-3.824 1.168-4.813l2.688-.455z" mask="url(#B)"/><path d="M27.232 19.019c-1.696.591-3.098.245-4.784.898.743-.229.995-.059 1.754-.194.915-.131 2.114-.349 3.03-.704zm1.111.854c-.558.163-.759.359-1.312.554l-3.679 1.105c-.96.331-2.091.342-3.05.673-.781.236-1.626.546-2.493.509-1.029-.071-1.742-1.03-1.691-1.869.055-.585.543-.481 1.106-.613l6.463-1.284a26.46 26.46 0 0 1 3.559-.221c.352.001 2.388.02 2.469.261.156.451-.998.785-1.372.884h0z" mask="url(#B)"/></g><path d="M38.08 13.84h.67l1.32 4.42h.02l1.26-4.42h.71l1.26 4.42h.02l1.32-4.42h.67L43.67 19h-.69l-1.27-4.34h-.02L40.43 19h-.69l-1.66-5.16zm10.44-1.98h.63v1.01h-.63v-1.01zm0 1.98h.63V19h-.63v-5.16zm7.43 1.51c-.007-.193-.047-.362-.12-.505a1.02 1.02 0 0 0-.295-.355 1.23 1.23 0 0 0-.425-.205c-.16-.043-.33-.065-.51-.065a2.07 2.07 0 0 0-.425.045 1.31 1.31 0 0 0-.395.15.85.85 0 0 0-.29.275c-.073.113-.11.253-.11.42a.59.59 0 0 0 .105.355c.07.097.158.178.265.245a1.69 1.69 0 0 0 .35.165l.35.105.84.19c.18.027.358.075.535.145s.333.162.47.275.248.253.335.42.13.363.13.59c0 .28-.063.518-.19.715a1.55 1.55 0 0 1-.485.48 2.06 2.06 0 0 1-.665.265c-.247.053-.49.08-.73.08-.607 0-1.098-.143-1.475-.43s-.592-.747-.645-1.38h.63c.027.427.182.748.465.965s.635.325 1.055.325c.153 0 .312-.017.475-.05s.315-.09.455-.17a1.09 1.09 0 0 0 .345-.305.75.75 0 0 0 .135-.455c0-.153-.032-.282-.095-.385s-.148-.19-.255-.26a1.61 1.61 0 0 0-.365-.175L55 16.7l-.81-.18a4.58 4.58 0 0 1-.57-.185c-.173-.07-.325-.157-.455-.26a1.09 1.09 0 0 1-.305-.38c-.073-.15-.11-.335-.11-.555 0-.26.058-.483.175-.67s.268-.337.455-.45.395-.197.625-.25.458-.08.685-.08c.26 0 .502.033.725.1s.42.17.59.31.305.313.405.52.157.45.17.73h-.63zm7.93.71c-.007-.24-.048-.47-.125-.69a1.89 1.89 0 0 0-.325-.585 1.61 1.61 0 0 0-.51-.41 1.46 1.46 0 0 0-.68-.155c-.26 0-.49.052-.69.155a1.61 1.61 0 0 0-.51.41c-.14.17-.252.367-.335.59a2.89 2.89 0 0 0-.165.685h3.34zm-3.34.53c0 .227.032.462.095.705s.165.462.305.655.317.353.53.48.47.19.77.19c.46 0 .82-.12 1.08-.36s.44-.56.54-.96h.63c-.133.587-.378 1.04-.735 1.36s-.862.48-1.515.48c-.407 0-.758-.072-1.055-.215s-.538-.34-.725-.59-.325-.54-.415-.87-.135-.678-.135-1.045a3.75 3.75 0 0 1 .135-1c.09-.327.228-.618.415-.875s.428-.463.725-.62.648-.235 1.055-.235c.413 0 .767.083 1.06.25a2.11 2.11 0 0 1 .715.655c.183.27.315.58.395.93a4.08 4.08 0 0 1 .1 1.065h-3.97zm7.32-2.75h.58v1.21h.02a1.98 1.98 0 0 1 .745-.97c.337-.227.738-.33 1.205-.31v.63c-.287-.013-.547.025-.78.115s-.435.218-.605.385-.302.365-.395.595a1.99 1.99 0 0 0-.14.755V19h-.63v-5.16zm7.64.53h-1.02V19h-.63v-4.63h-.88v-.53h.88v-.47c0-.22.017-.423.05-.61a1.19 1.19 0 0 1 .19-.48c.093-.133.222-.237.385-.31s.372-.11.625-.11l.26.01.27.03v.54l-.24-.035c-.073-.01-.147-.015-.22-.015-.173 0-.307.027-.4.08a.49.49 0 0 0-.205.215c-.043.09-.068.195-.075.315l-.01.39v.45h1.02v.53zM82.78 19h-.58v-.93h-.02c-.167.347-.408.612-.725.795s-.668.275-1.055.275c-.327 0-.605-.045-.835-.135a1.39 1.39 0 0 1-.56-.385 1.56 1.56 0 0 1-.315-.61 3.07 3.07 0 0 1-.1-.82v-3.35h.63v3.36c.013.467.122.82.325 1.06s.555.36 1.055.36a1.33 1.33 0 0 0 .7-.175c.193-.117.353-.272.48-.465s.22-.415.28-.665.09-.505.09-.765v-2.71h.63V19zm3.68-5.16h.63v.89h.02a1.51 1.51 0 0 1 .64-.755 1.88 1.88 0 0 1 1.01-.285c.36 0 .662.047.905.14s.438.225.585.395.25.378.31.625.09.523.09.83V19h-.63v-3.22c0-.22-.02-.425-.06-.615a1.3 1.3 0 0 0-.21-.495 1.02 1.02 0 0 0-.405-.33c-.17-.08-.382-.12-.635-.12s-.478.045-.675.135a1.46 1.46 0 0 0-.5.37c-.137.157-.243.343-.32.56a2.28 2.28 0 0 0-.125.705V19h-.63v-5.16zM98.88 19h-.58v-.98h-.02c-.067.167-.165.32-.295.46s-.278.258-.445.355a2.3 2.3 0 0 1-.535.225c-.19.053-.378.08-.565.08-.393 0-.735-.072-1.025-.215s-.532-.34-.725-.59-.337-.54-.43-.87-.14-.678-.14-1.045.047-.715.14-1.045.237-.62.43-.87.435-.448.725-.595.632-.22 1.025-.22a2.28 2.28 0 0 1 .565.07c.183.047.355.118.515.215a1.81 1.81 0 0 1 .425.355 1.49 1.49 0 0 1 .285.49h.02v-2.96h.63V19zm-4.13-2.58a3.39 3.39 0 0 0 .095.795c.063.263.163.498.3.705a1.65 1.65 0 0 0 .525.505c.213.13.47.195.77.195.333 0 .615-.065.845-.195a1.67 1.67 0 0 0 .56-.505c.143-.207.247-.442.31-.705a3.39 3.39 0 0 0 0-1.59c-.063-.263-.167-.498-.31-.705a1.67 1.67 0 0 0-.56-.505c-.23-.13-.512-.195-.845-.195-.3 0-.557.065-.77.195a1.65 1.65 0 0 0-.525.505c-.137.207-.237.442-.3.705a3.39 3.39 0 0 0-.095.795zm7.84-4.56h.63v1.01h-.63v-1.01zm0 1.98h.63V19h-.63v-5.16zm4.33 0h.63v.89h.02a1.51 1.51 0 0 1 .64-.755 1.88 1.88 0 0 1 1.01-.285c.36 0 .662.047.905.14s.438.225.585.395.25.378.31.625.09.523.09.83V19h-.63v-3.22c0-.22-.02-.425-.06-.615a1.3 1.3 0 0 0-.21-.495 1.02 1.02 0 0 0-.405-.33c-.17-.08-.382-.12-.635-.12s-.478.045-.675.135a1.46 1.46 0 0 0-.5.37c-.137.157-.243.343-.32.56a2.28 2.28 0 0 0-.125.705V19h-.63v-5.16zm12.24 4.74c0 .38-.042.723-.125 1.03s-.215.567-.395.78-.415.377-.705.49-.645.17-1.065.17c-.26 0-.513-.03-.76-.09a2.16 2.16 0 0 1-.665-.28c-.197-.127-.36-.288-.49-.485s-.205-.432-.225-.705h.63c.033.193.098.355.195.485a1.17 1.17 0 0 0 .35.315c.137.08.288.138.455.175s.337.055.51.055c.587 0 1.01-.167 1.27-.5s.39-.813.39-1.44v-.7h-.02a1.84 1.84 0 0 1-.645.77c-.283.193-.615.29-.995.29-.413 0-.767-.068-1.06-.205a1.97 1.97 0 0 1-.725-.565c-.19-.24-.328-.522-.415-.845s-.13-.668-.13-1.035a3.22 3.22 0 0 1 .155-1.005c.103-.317.253-.593.45-.83s.44-.423.73-.56.622-.205.995-.205a1.81 1.81 0 0 1 .545.08c.17.053.325.128.465.225a2 2 0 0 1 .375.335 1.53 1.53 0 0 1 .255.4h.02v-.89h.63v4.74zm-2.29-.17a1.44 1.44 0 0 0 .72-.175 1.64 1.64 0 0 0 .52-.46c.14-.19.245-.408.315-.655a2.77 2.77 0 0 0 .105-.76 3.29 3.29 0 0 0-.09-.76c-.06-.253-.157-.483-.29-.69a1.57 1.57 0 0 0-.515-.5c-.21-.127-.465-.19-.765-.19s-.557.062-.77.185a1.64 1.64 0 0 0-.53.485 2.03 2.03 0 0 0-.305.685c-.063.257-.095.518-.095.785a2.9 2.9 0 0 0 .1.76 1.95 1.95 0 0 0 .31.655c.14.19.317.343.53.46s.467.175.76.175z" fill="#fff" fill-rule="nonzero"/></g></svg>